<mxfile host="app.diagrams.net" modified="2023-10-09T17:44:17.036Z" agent="Mozilla/5.0 (X11; Linux x86_64; rv:109.0) Gecko/20100101 Firefox/118.0" etag="ohu5blOyuVN-qAK0DoH0" version="22.0.4" type="device">
  <diagram name="Page-1" id="IDeHgEZUEsmx3j9KXKCf">
    <mxGraphModel dx="1434" dy="755" grid="1" gridSize="10" guides="1" tooltips="1" connect="1" arrows="1" fold="1" page="1" pageScale="1" pageWidth="850" pageHeight="1100" math="0" shadow="0">
      <root>
        <mxCell id="0" />
        <mxCell id="1" parent="0" />
        <mxCell id="Nmg4N5PofdiUhBlprnNq-3" style="edgeStyle=orthogonalEdgeStyle;rounded=0;orthogonalLoop=1;jettySize=auto;html=1;" edge="1" parent="1" source="Nmg4N5PofdiUhBlprnNq-1" target="Nmg4N5PofdiUhBlprnNq-2">
          <mxGeometry relative="1" as="geometry" />
        </mxCell>
        <mxCell id="Nmg4N5PofdiUhBlprnNq-1" value="Main Thread" style="rounded=0;whiteSpace=wrap;html=1;" vertex="1" parent="1">
          <mxGeometry x="70" y="170" width="120" height="60" as="geometry" />
        </mxCell>
        <mxCell id="Nmg4N5PofdiUhBlprnNq-4" style="edgeStyle=orthogonalEdgeStyle;rounded=0;orthogonalLoop=1;jettySize=auto;html=1;" edge="1" parent="1" source="Nmg4N5PofdiUhBlprnNq-2">
          <mxGeometry relative="1" as="geometry">
            <mxPoint x="480" y="200" as="targetPoint" />
          </mxGeometry>
        </mxCell>
        <mxCell id="Nmg4N5PofdiUhBlprnNq-2" value="Go one clock" style="rounded=0;whiteSpace=wrap;html=1;" vertex="1" parent="1">
          <mxGeometry x="280" y="170" width="120" height="60" as="geometry" />
        </mxCell>
        <mxCell id="Nmg4N5PofdiUhBlprnNq-5" value="draw next frame" style="rounded=0;whiteSpace=wrap;html=1;" vertex="1" parent="1">
          <mxGeometry x="480" y="170" width="120" height="60" as="geometry" />
        </mxCell>
      </root>
    </mxGraphModel>
  </diagram>
</mxfile>
